<svg width="32" height="32" viewBox="0 0 32 32" fill="none" xmlns="http://www.w3.org/2000/svg">
  <rect width="32" height="32" rx="6" fill="#2563EB"/>
  <path d="M8 24V8H12C14.6667 8 16.6667 8.66667 18 10C19.3333 11.3333 20 13.3333 20 16C20 18.6667 19.3333 20.6667 18 22C16.6667 23.3333 14.6667 24 12 24H8ZM11 21H12C13.3333 21 14.3333 20.6667 15 20C15.6667 19.3333 16 18.3333 16 17V15C16 13.6667 15.6667 12.6667 15 12C14.3333 11.3333 13.3333 11 12 11H11V21Z" fill="white"/>
  <circle cx="24" cy="16" r="3" fill="#10B981"/>
</svg>